<?xml version="1.0" encoding="UTF-8"?>
<svg xmlns="http://www.w3.org/2000/svg" xmlns:xlink="http://www.w3.org/1999/xlink" width="0" height="0">
<defs>
<symbol viewBox="0 0 28 28" class="x1lliihq x1k90msu x2h7rmj x1qfuztq x5e5rjt" fill="currentColor" id="document-fill">
  <path fill-rule="evenodd" fill="currentColor"
    d="M10.7411 25.453c-.693.192-1.417-.217-1.609-.91-.093-.335-.049-.688.124-.992.173-.306.451-.525.786-.618l11.712-3.248.704 2.535-11.717 3.233zm14.322-3.174c-.11-.399-.521-.636-.922-.523l-.238.065-.711-2.564c.337-.154.62-.405.807-.736.234-.415.294-.894.167-1.35l-4.124-14.867c-.127-.457-.425-.838-.838-1.073-.416-.234-.894-.294-1.351-.167L4.9681 4.639c-.721.199-1.321.669-1.691 1.323-.37.654-.464 1.412-.264 2.132l3.574 12.885v.002l1.099 3.961v.002c.345 1.24 1.478 2.057 2.707 2.057.247 0 .498-.033.747-.103l13.4-3.697c.399-.109.634-.522.523-.922z">
  </path>
</symbol>
<symbol viewBox="0 0 28 28" class="x1lliihq x1k90msu x2h7rmj x1qfuztq xcza8v6" fill="currentColor" id="document-outline">
  <path fill-rule="evenodd" fill="currentColor"
    d="M10.7411 25.453c-.693.192-1.417-.217-1.609-.91-.093-.335-.049-.688.124-.992.173-.306.451-.525.786-.618l11.712-3.248.704 2.535-11.717 3.233zM4.5831 6.701c.172-.306.451-.524.785-.617l12.887-3.574c.025-.007.049-.01.072-.01.06 0 .109.021.138.037.038.021.105.071.131.167l4.124 14.868a.2701.2701 0 01-.027.21.2728.2728 0 01-.166.132h-.001l-12.885 3.574c-.695.193-1.417-.217-1.609-.91L4.4591 7.693c-.093-.335-.049-.687.124-.992zm20.48 15.578c-.11-.399-.522-.636-.922-.523l-.238.065-.711-2.564c.337-.154.62-.405.807-.736.234-.415.294-.894.167-1.35l-4.124-14.867c-.127-.457-.425-.838-.838-1.073-.415-.234-.894-.294-1.351-.167L4.9681 4.639c-.721.199-1.321.669-1.691 1.323-.37.654-.464 1.412-.264 2.132l3.574 12.885v.002l1.099 3.961v.002c.345 1.24 1.478 2.057 2.707 2.057.247 0 .498-.033.747-.103l13.4-3.697c.399-.109.634-.522.523-.922z">
  </path>
</symbol>
<symbol viewBox="0 0 32 32" class="x1lliihq x1k90msu x2h7rmj x1qfuztq x5e5rjt" fill="currentColor" id="home-fill">
  <path fill="currentColor"
    d="M16.57,2.29A13.88,13.88,0,0,0,11,3.42a14.28,14.28,0,0,0,0,26.31,14.06,14.06,0,0,0,5.56,1.13,14.3,14.3,0,0,0,5.25-1l-1.08-2.73a11.1,11.1,0,0,1-4.17.8,11.36,11.36,0,0,1,0-22.71,9.6,9.6,0,0,1,8,14.91L22.1,14c-.37-.9-.81-2.25-2.47-2.25s-2.1,1.36-2.46,2.25l-2.29,5.68-3.09-7.78H8.55l3.84,9.46c.39,1,.82,2.26,2.49,2.26s2.08-1.3,2.47-2.26l2.28-5.62,2.29,5.62c.46,1.16.95,2.26,2.47,2.26a2.78,2.78,0,0,0,2.14-1.15,12.54,12.54,0,0,0-10-20.16Z">
  </path>
</symbol>
<symbol viewBox="0 0 32 32" class="x1lliihq x1k90msu x2h7rmj x1qfuztq x5e5rjt" fill="currentColor" id="home-outline">
  <path fill="currentColor"
    d="M16.57,2.29A13.88,13.88,0,0,0,11,3.42a14.28,14.28,0,0,0,0,26.31,14.06,14.06,0,0,0,5.56,1.13,14.3,14.3,0,0,0,5.25-1l-1.08-2.73a11.1,11.1,0,0,1-4.17.8,11.36,11.36,0,0,1,0-22.71,9.6,9.6,0,0,1,8,14.91L22.1,14c-.37-.9-.81-2.25-2.47-2.25s-2.1,1.36-2.46,2.25l-2.29,5.68-3.09-7.78H8.55l3.84,9.46c.39,1,.82,2.26,2.49,2.26s2.08-1.3,2.47-2.26l2.28-5.62,2.29,5.62c.46,1.16.95,2.26,2.47,2.26a2.78,2.78,0,0,0,2.14-1.15,12.54,12.54,0,0,0-10-20.16Z">
  </path>
</symbol>
<symbol viewBox="0 0 250 40" fill="none" id="login-logo">
  <path     d="M14.1566 33.488C15.474 33.488 16.5486 33.2973 17.3806 32.916C18.2473 32.5 18.906 31.9627 19.3566 31.304C19.842 30.6107 20.1713 29.8307 20.3446 28.964C20.518 28.0627 20.6046 27.144 20.6046 26.208V25.272H27.4686V26.208C27.4686 30.5413 26.3246 33.8867 24.0366 36.244C21.7833 38.5667 18.49 39.728 14.1566 39.728C9.99663 39.728 6.70329 38.4627 4.27663 35.932C1.84996 33.4013 0.636625 29.7093 0.636625 24.856V16.744C0.636625 14.4213 0.948625 12.3413 1.57262 10.504C2.19663 8.632 3.09796 7.072 4.27663 5.824C5.45529 4.54133 6.87663 3.57067 8.54063 2.912C10.2046 2.21866 12.0766 1.872 14.1566 1.872C16.306 1.872 18.2126 2.184 19.8766 2.808C21.5406 3.432 22.9273 4.33333 24.0366 5.512C25.1806 6.69067 26.03 8.112 26.5846 9.776C27.174 11.44 27.4686 13.312 27.4686 15.392V16.328H20.6046V15.392C20.6046 14.5253 20.5006 13.6587 20.2926 12.792C20.0846 11.9253 19.738 11.1453 19.2526 10.452C18.7673 9.75867 18.1086 9.204 17.2766 8.788C16.4446 8.33733 15.4046 8.112 14.1566 8.112C13.0126 8.112 12.0246 8.33733 11.1926 8.788C10.3606 9.204 9.66729 9.79333 9.11263 10.556C8.55796 11.284 8.14196 12.1507 7.86463 13.156C7.62196 14.1267 7.50063 15.1493 7.50063 16.224V25.376C7.50063 26.5547 7.62196 27.6467 7.86463 28.652C8.10729 29.6227 8.48863 30.472 9.00863 31.2C9.52863 31.928 10.2046 32.5 11.0366 32.916C11.9033 33.2973 12.9433 33.488 14.1566 33.488ZM40.6925 39H34.1405V2.6H40.6925V17.368H41.6285C42.2871 15.808 43.2578 14.612 44.5405 13.78C45.8231 12.9133 47.4005 12.48 49.2725 12.48C50.5551 12.48 51.7338 12.688 52.8085 13.104C53.8831 13.52 54.8191 14.144 55.6165 14.976C56.4138 15.808 57.0378 16.8827 57.4885 18.2C57.9391 19.4827 58.1645 21.008 58.1645 22.776V39H51.6125V24.336C51.6125 22.4987 51.1618 21.06 50.2605 20.02C49.3938 18.9453 48.1285 18.408 46.4645 18.408C44.5231 18.408 43.0671 19.0667 42.0965 20.384C41.1605 21.6667 40.6925 23.4 40.6925 25.584V39ZM66.3443 32.76H75.0803V19.448H66.9683V13.208H81.6323V32.76H89.1203V39H66.3443V32.76ZM83.2443 5.564C83.2443 6.25733 83.1056 6.916 82.8283 7.54C82.5856 8.12933 82.239 8.64933 81.7883 9.1C81.3376 9.516 80.8003 9.86267 80.1763 10.14C79.587 10.3827 78.963 10.504 78.3043 10.504C77.611 10.504 76.9696 10.3827 76.3803 10.14C75.791 9.86267 75.271 9.516 74.8203 9.1C74.3696 8.64933 74.0056 8.12933 73.7283 7.54C73.4856 6.916 73.3643 6.25733 73.3643 5.564C73.3643 4.87066 73.4856 4.22933 73.7283 3.64C74.0056 3.016 74.3696 2.496 74.8203 2.08C75.271 1.62933 75.791 1.28266 76.3803 1.04C76.9696 0.762665 77.611 0.623998 78.3043 0.623998C78.963 0.623998 79.587 0.762665 80.1763 1.04C80.8003 1.28266 81.3376 1.62933 81.7883 2.08C82.239 2.496 82.5856 3.016 82.8283 3.64C83.1056 4.22933 83.2443 4.87066 83.2443 5.564ZM96.4682 2.6H122.676V9.152H113.004V39H106.14V9.152H96.4682V2.6ZM136.212 39H129.66V2.6H136.212V17.368H137.148C137.807 15.808 138.777 14.612 140.06 13.78C141.343 12.9133 142.92 12.48 144.792 12.48C146.075 12.48 147.253 12.688 148.328 13.104C149.403 13.52 150.339 14.144 151.136 14.976C151.933 15.808 152.557 16.8827 153.008 18.2C153.459 19.4827 153.684 21.008 153.684 22.776V39H147.132V24.336C147.132 22.4987 146.681 21.06 145.78 20.02C144.913 18.9453 143.648 18.408 141.984 18.408C140.043 18.408 138.587 19.0667 137.616 20.384C136.68 21.6667 136.212 23.4 136.212 25.584V39ZM178.088 35.256C177.395 36.8853 176.424 38.0467 175.176 38.74C173.928 39.3987 172.472 39.728 170.808 39.728C169.248 39.728 167.775 39.4333 166.388 38.844C165.036 38.2547 163.84 37.388 162.8 36.244C161.76 35.1 160.928 33.7133 160.304 32.084C159.715 30.4547 159.42 28.6 159.42 26.52V25.688C159.42 23.6427 159.715 21.8053 160.304 20.176C160.893 18.5467 161.691 17.16 162.696 16.016C163.701 14.872 164.863 14.0053 166.18 13.416C167.532 12.792 168.971 12.48 170.496 12.48C172.333 12.48 173.807 12.792 174.916 13.416C176.06 14.04 176.961 15.0107 177.62 16.328H178.556V13.208H185.108V31.2C185.108 32.24 185.576 32.76 186.512 32.76H187.5V39H183.028C181.849 39 180.879 38.6533 180.116 37.96C179.388 37.2667 179.024 36.3653 179.024 35.256H178.088ZM172.264 33.488C174.171 33.488 175.696 32.864 176.84 31.616C177.984 30.3333 178.556 28.6 178.556 26.416V25.792C178.556 23.608 177.984 21.892 176.84 20.644C175.696 19.3613 174.171 18.72 172.264 18.72C170.357 18.72 168.832 19.3613 167.688 20.644C166.544 21.892 165.972 23.608 165.972 25.792V26.416C165.972 28.6 166.544 30.3333 167.688 31.616C168.832 32.864 170.357 33.488 172.264 33.488ZM199.788 39H193.236V13.208H199.788V17.056H200.724C201.313 15.6 202.266 14.4733 203.584 13.676C204.901 12.8787 206.444 12.48 208.212 12.48C209.46 12.48 210.621 12.688 211.696 13.104C212.805 13.4853 213.776 14.092 214.608 14.924C215.44 15.756 216.081 16.8133 216.532 18.096C217.017 19.3787 217.26 20.904 217.26 22.672V39H210.708V24.336C210.708 22.4987 210.257 21.06 209.356 20.02C208.489 18.9453 207.224 18.408 205.56 18.408C203.618 18.408 202.162 19.0667 201.192 20.384C200.256 21.6667 199.788 23.4 199.788 25.584V39ZM231.732 39H225.18V2.6H231.732V17.368H232.668C233.326 15.808 234.297 14.612 235.58 13.78C236.862 12.9133 238.44 12.48 240.312 12.48C241.594 12.48 242.773 12.688 243.848 13.104C244.922 13.52 245.858 14.144 246.656 14.976C247.453 15.808 248.077 16.8827 248.528 18.2C248.978 19.4827 249.204 21.008 249.204 22.776V39H242.652V24.336C242.652 22.4987 242.201 21.06 241.3 20.02C240.433 18.9453 239.168 18.408 237.504 18.408C235.562 18.408 234.106 19.0667 233.136 20.384C232.2 21.6667 231.732 23.4 231.732 25.584V39Z"
    fill="#1877F2" ></path>
</symbol>
<symbol viewBox="0 0 28 28" class="x1lliihq x1k90msu x2h7rmj x1qfuztq x5e5rjt" fill="currentColor" id="notification-fill">
  <path fill="currentColor"
    d="M9.555 24.787l6.5-1.156c.389-.07.715.324.555.685A4.496 4.496 0 0 1 12.5 27a4.448 4.448 0 0 1-3.233-1.383c-.271-.284-.098-.761.288-.83zm-.937-19.43A3.433 3.433 0 0 1 8.5 4.5c0-.33.06-.643.147-.946C9.063 2.084 10.4 1 12 1a3.48 3.48 0 0 1 2.729 1.336c.374.47.627 1.03.72 1.65 2.804.7 5.119 2.88 5.923 5.889l.424 1.88c.122.696.848 1.33 1.616 2.002 1.072.937 2.288 1.999 2.56 3.656.13.793-.086 2.944-2.634 3.398L7.2 23.683a4.221 4.221 0 0 1-.733.067c-2.003 0-2.77-1.646-2.9-2.356-.305-1.65.477-3.066 1.166-4.316.495-.897.962-1.744.846-2.405l-.241-1.92c-.255-2.998 1.055-5.743 3.28-7.396z">
  </path>
</symbol>
<symbol viewBox="0 0 28 28" class="x1lliihq x1k90msu x2h7rmj x1qfuztq xcza8v6" fill="currentColor" id="notification-outline">
  <path fill="currentColor"
    d="M6.046 17.802c.599-1.084 1.218-2.206 1.017-3.352l-.234-1.853c-.3-3.52 2.06-6.634 5.488-7.244.396-.07.79-.104 1.178-.104 2.97 0 5.62 1.996 6.42 4.984l.409 1.816c.207 1.183 1.17 2.024 2.1 2.837.926.81 1.883 1.645 2.067 2.77v.002c.025.141.185 1.391-1.417 1.676L6.936 22.205c-1.481.267-1.83-.766-1.894-1.084-.208-1.122.408-2.239 1.004-3.319M10 4.5c0-1.103.898-2 2-2 .838 0 1.555.52 1.852 1.264a8.232 8.232 0 0 0-1.798.113 8.202 8.202 0 0 0-2.05.655c0-.01-.004-.02-.004-.032m5.5 18c0 1.654-1.346 3-3 3a2.983 2.983 0 0 1-2.896-2.246l5.873-1.045c.009.097.023.193.023.291m-9.033 1.25c.227 0 .472-.022.732-.068l.924-.165A4.477 4.477 0 0 0 12.5 27c2.482 0 4.5-2.019 4.5-4.5 0-.186-.02-.37-.044-.554l6.38-1.136c2.552-.453 2.768-2.607 2.636-3.399-.274-1.656-1.49-2.718-2.561-3.654-.767-.672-1.493-1.306-1.616-2.002l-.423-1.88c-.805-3.009-3.121-5.178-5.923-5.878C15.203 2.307 13.758 1 11.999 1c-1.93 0-3.5 1.57-3.5 3.5 0 .292.047.577.119.857-2.224 1.653-3.535 4.398-3.28 7.397l.24 1.918c.117.661-.35 1.508-.845 2.405-.69 1.25-1.471 2.667-1.166 4.316.13.71.896 2.357 2.9 2.357">
  </path>
</symbol>
</defs>
</svg>