<svg viewBox="0 0 28 28" class="x1lliihq x1k90msu x2h7rmj x1qfuztq x5e5rjt" fill="currentColor" height="32" width="32">
  <path fill-rule="evenodd" fill="currentColor"
    d="M10.7411 25.453c-.693.192-1.417-.217-1.609-.91-.093-.335-.049-.688.124-.992.173-.306.451-.525.786-.618l11.712-3.248.704 2.535-11.717 3.233zm14.322-3.174c-.11-.399-.521-.636-.922-.523l-.238.065-.711-2.564c.337-.154.62-.405.807-.736.234-.415.294-.894.167-1.35l-4.124-14.867c-.127-.457-.425-.838-.838-1.073-.416-.234-.894-.294-1.351-.167L4.9681 4.639c-.721.199-1.321.669-1.691 1.323-.37.654-.464 1.412-.264 2.132l3.574 12.885v.002l1.099 3.961v.002c.345 1.24 1.478 2.057 2.707 2.057.247 0 .498-.033.747-.103l13.4-3.697c.399-.109.634-.522.523-.922z">
  </path>
</svg>